<?xml version="1.0" encoding="utf-8"?>
<!-- Generator: Adobe Illustrator 25.2.0, SVG Export Plug-In . SVG Version: 6.00 Build 0)  -->
<svg version="1.1" id="Layer_1" xmlns="http://www.w3.org/2000/svg" xmlns:xlink="http://www.w3.org/1999/xlink" x="0px" y="0px"
	 viewBox="0 0 512 512" style="enable-background:new 0 0 512 512;" xml:space="preserve">
<style type="text/css">
	.st0{fill:#231F1F;}
	.st1{fill:#FFFFFF;}
	.st2{fill:#3D3D3D;}
	.st3{fill:#5B4319;}
	.st4{fill:#FAFAFA;}
	.st5{fill:#EA4B76;}
	.st6{fill:#FCFCFC;}
	.st7{fill:#F6F8F8;}
	.st8{fill:#F5F5F5;}
	.st9{fill:#242426;}
	.st10{fill:#252526;}
</style>
<g>
	<path class="st0" d="M435.08,345.38c0,8.46,0.84,16.4-0.32,24.03c-0.68,4.51-3.58,10.27-7.23,12.25c-3.13,1.7-9.3-0.13-13.13-2.22
		c-6.18-3.37-11.54-8.24-15.47-11.16c-15.98,15.05-30.02,31.26-46.96,43.43c-18.48,13.28-36.71,25.22-52.08,43.25
		c-27.94,32.76-73.06,25.99-98.39-12.06c-5.63-8.46-12.24-13.98-21.09-18.8c-12.77-6.95-25.08-15.29-36.08-24.79
		c-10.74-9.28-19.58-20.76-29.86-31.93c-5.26,3.88-10.82,8.93-17.25,12.38c-3.77,2.02-9.83,3.31-13.18,1.61
		c-3.41-1.73-6.15-7.34-6.7-11.57c-1.04-7.95-0.3-16.13-0.3-24.87c-3.07-0.15-5.27-0.15-7.45-0.37c-10.93-1.08-15.4-8.82-10.2-18.61
		c8.24-15.51,17.18-30.65,25.29-46.23c2.28-4.38,3.75-9.74,3.77-14.66c0.25-61.03,0.16-122.06,0.18-183.08
		c0.01-19.9,9.56-35.24,27.1-42.16c18.05-7.12,34.45-3.87,48.38,9.84c19.07,18.77,37.83,37.87,57.19,56.33
		c2.86,2.73,8.29,3.69,12.59,3.84c14.94,0.5,29.94-0.34,44.83,0.63c6.62,0.43,11.4,0.27,16.4-4.92
		c17.67-18.32,35.87-36.12,53.93-54.06c15.29-15.19,33.01-19.39,50.71-11.66c18.82,8.22,27.27,23.49,27.33,43.39
		c0.2,61.03,0.44,122.06-0.32,183.08c-0.12,9.37,1.96,16.7,6.43,24.31c6.26,10.65,12.01,21.61,17.92,32.47
		c7.46,13.7,3.58,20.58-12.11,21.61C438.07,344.74,437.15,345,435.08,345.38z M194.74,267.61c-0.86,0.67-1.71,1.34-2.57,2
		c-7.72,9.61-7.79,19.38-0.19,26.86c6.89,6.77,18.48,7.15,25.81,0.83c6.94-5.99,8.48-17.23,3.41-24.89
		C215.44,263.72,205.28,261.88,194.74,267.61z M294.98,267.71c-0.48,0.06-0.88,0.25-1.22,0.58c-8.81,8.82-9.88,18.48-2.97,26.71
		c6.48,7.72,18.47,9.08,26.41,3c7.41-5.68,9.36-17.78,4.13-25.57C315.38,263.59,305.3,261.78,294.98,267.71z M423.84,320.5
		c-18.02-23.23-26.4-47.96-28.01-75.25c-0.28-4.73-2.62-10.67-6.07-13.66c-23.86-20.64-66.28-10.21-79.59,19.24
		c2.67,0.97,5.39,1.8,7.99,2.93c16.57,7.22,23.91,26.15,16.51,42.43c-7.31,16.09-26.69,22.82-43,15.9
		c-6.85-2.9-14.58-4.29-22.04-5.01c-8.73-0.84-17.6-0.19-26.41-0.2c-8.7-0.01-16.85,0.17-25.12,5.03
		c-11.31,6.64-26.75,2.76-35.88-6.68c-9.12-9.43-11.5-23.25-6.14-35.28c4.97-11.15,14.36-16.68,25.97-19.29
		c-17.21-25.12-48.58-32.28-73.87-17.85c-8.28,4.72-14.05,11.15-13.74,20.77c0.68,21.59-8.38,39.58-19.4,57.06
		c-1.86,2.95-3.24,6.2-5.27,10.15c14.62,3.41,10.16,15.33,11.28,25.04c1.56-0.43,2.54-0.46,3.24-0.92
		c17.98-11.95,18.43-11.65,29.92,6.12c18.63,28.79,43.44,49.93,76.85,59.78c14.53,4.28,25.2-0.7,31.59-13.83
		c-8.17-12.11-16.45-23.79-24.09-35.87c-6.28-9.93-1.91-23.19,9.74-24.39c18.29-1.89,37.07-1.97,55.35-0.02
		c12.21,1.3,16.19,14.49,9.43,25.09c-6.65,10.42-13.18,21.02-20.92,30.6c-3.86,4.77-3.77,8.71-0.23,11.7
		c4.45,3.75,10.31,8.37,15.43,8.23c9.12-0.26,18.7-2.57,27.13-6.23c27.68-12,49.16-31.47,64.78-57.34
		c8.79-14.55,12.57-15.38,26.03-5.8c1.65,1.17,3.58,1.94,5.74,3.08C412.11,335.85,407.8,324.44,423.84,320.5z M377.05,198.76
		c-30.83-43.68-71.61-66.87-123.98-65.7c-52.61,1.17-92.71,25.97-121.38,71.42c48.88-10.85,94.39,10.9,108.89,78.24
		c10.25,0,20.59,0,30.81,0C288.54,217.02,322.83,191.53,377.05,198.76z M196.96,120.09c0.24-0.8,0.48-1.59,0.71-2.39
		c-17.22-17.29-34.32-34.72-51.74-51.81c-5.8-5.69-12.98-7.03-20.78-3.79c-7.77,3.23-12.2,9.31-12.28,17.3
		c-0.33,35.35-0.14,70.71-0.14,106.07c0.87,0.18,1.74,0.36,2.6,0.54c1.05-4.3,2.92-8.58,3-12.9c0.35-17.26,0.08-34.53,0.18-51.8
		c0.08-13.54,5.37-24.15,18.39-29.49c12.75-5.23,23.51-1.15,32.83,8.14c6,5.98,11.76,12.24,18.18,17.73
		C190.06,119.53,193.9,119.35,196.96,120.09z M317.65,118.34c0.21,1.04,0.42,2.08,0.63,3.13c2.95-1.04,6.58-1.32,8.74-3.25
		c6.79-6.07,12.99-12.79,19.49-19.19c9.22-9.08,20.04-12.22,32.17-7.08c12.01,5.09,17.72,14.58,17.6,27.77
		c-0.18,19.22-0.24,38.45,0.1,57.66c0.08,4.36,2,8.7,3.08,13.04c0.86-0.17,1.72-0.33,2.58-0.5c0-37.62,0.47-75.25-0.55-112.84
		c-0.14-5.12-6.85-11.29-12.02-14.73c-6.52-4.34-14.14-2.25-19.69,3.26C352.25,83.03,335,100.74,317.65,118.34z M372.55,154.68
		c0-12.5,0.14-23.7-0.13-34.9c-0.05-1.89-1.58-5.07-2.86-5.3c-2.07-0.37-5,0.61-6.66,2.06c-6.07,5.29-11.76,11.02-17.85,16.82
		C354.37,140.58,362.9,147.19,372.55,154.68z M285.58,441.19c-20.38,0-40.5,0-60.66,0C245.93,461.82,270.98,458.67,285.58,441.19z
		 M169.24,131.97c-6.24-5.68-11.98-11.43-18.38-16.3c-1.28-0.97-7.34,1.26-7.38,2.2c-0.54,10.77-0.34,21.58-0.34,33.7
		C152.35,144.65,160,138.91,169.24,131.97z"/>
	<path class="st1" d="M423.84,320.5c-16.04,3.94-11.74,15.35-12.81,25.54c-2.16-1.14-4.09-1.91-5.74-3.08
		c-13.46-9.58-17.24-8.75-26.03,5.8c-15.62,25.86-37.1,45.33-64.78,57.34c-8.43,3.66-18,5.97-27.13,6.23
		c-5.12,0.15-10.98-4.47-15.43-8.23c-3.54-2.99-3.62-6.93,0.23-11.7c7.74-9.58,14.27-20.18,20.92-30.6
		c6.76-10.6,2.78-23.79-9.43-25.09c-18.28-1.95-37.06-1.87-55.35,0.02c-11.65,1.2-16.02,14.46-9.74,24.39
		c7.64,12.08,15.91,23.76,24.09,35.87c-6.4,13.13-17.06,18.11-31.59,13.83c-33.41-9.85-58.22-30.99-76.85-59.78
		c-11.5-17.77-11.94-18.07-29.92-6.12c-0.7,0.47-1.69,0.5-3.24,0.92c-1.12-9.71,3.34-21.64-11.28-25.04
		c2.03-3.95,3.41-7.2,5.27-10.15c11.02-17.48,20.08-35.47,19.4-57.06c-0.3-9.61,5.47-16.04,13.74-20.77
		c25.29-14.43,56.66-7.27,73.87,17.85c-11.62,2.62-21,8.14-25.97,19.29c-5.36,12.03-2.98,25.85,6.14,35.28
		c9.13,9.44,24.57,13.32,35.88,6.68c8.27-4.85,16.42-5.04,25.12-5.03c8.81,0.01,17.68-0.64,26.41,0.2
		c7.46,0.72,15.19,2.11,22.04,5.01c16.31,6.91,35.69,0.19,43-15.9c7.4-16.29,0.06-35.22-16.51-42.43c-2.59-1.13-5.31-1.95-7.99-2.93
		c13.31-29.46,55.73-39.88,79.59-19.24c3.46,2.99,5.79,8.93,6.07,13.66C397.45,272.54,405.83,297.28,423.84,320.5z"/>
	<path class="st2" d="M377.05,198.76c-54.22-7.23-88.51,18.26-105.67,83.95c-10.22,0-20.56,0-30.81,0
		c-14.5-67.33-60.01-89.09-108.89-78.24c28.68-45.45,68.77-70.24,121.38-71.42C305.44,131.9,346.22,155.08,377.05,198.76z"/>
	<path class="st2" d="M196.96,120.09c-3.06-0.74-6.9-0.57-9.04-2.39c-6.42-5.49-12.18-11.75-18.18-17.73
		c-9.32-9.29-20.09-13.38-32.83-8.14c-13.02,5.35-18.31,15.95-18.39,29.49c-0.1,17.27,0.18,34.54-0.18,51.8
		c-0.09,4.32-1.95,8.6-3,12.9c-0.87-0.18-1.74-0.36-2.6-0.54c0-35.36-0.19-70.71,0.14-106.07c0.07-8,4.51-14.08,12.28-17.3
		c7.8-3.24,14.99-1.91,20.78,3.79c17.42,17.1,34.52,34.52,51.74,51.81C197.43,118.5,197.2,119.3,196.96,120.09z"/>
	<path class="st2" d="M317.65,118.34c17.36-17.6,34.6-35.31,52.13-52.73c5.54-5.51,13.17-7.6,19.69-3.26
		c5.16,3.44,11.88,9.61,12.02,14.73c1.02,37.59,0.55,75.22,0.55,112.84c-0.86,0.17-1.72,0.33-2.58,0.5c-1.08-4.35-3-8.68-3.08-13.04
		c-0.34-19.22-0.28-38.44-0.1-57.66c0.12-13.19-5.59-22.68-17.6-27.77c-12.13-5.14-22.95-2.01-32.17,7.08
		c-6.5,6.4-12.7,13.12-19.49,19.19c-2.16,1.93-5.78,2.21-8.74,3.25C318.07,120.43,317.86,119.38,317.65,118.34z"/>
	<path class="st3" d="M294.96,267.72c10.33-5.93,20.41-4.13,26.36,4.71c5.24,7.79,3.29,19.9-4.13,25.57
		c-7.94,6.08-19.93,4.72-26.41-3c-6.91-8.23-5.83-17.88,2.95-26.69c0.25,4.45,0.53,8.9,0.8,13.34c-0.69,7.04,2.74,11.9,9.44,11.78
		c3.94-0.07,10.21-3.27,11.1-6.33c1.11-3.8-2.26-8.9-3.69-13.44c-1.45,0.71-2.9,1.42-4.35,2.13
		C306.37,268.07,301.46,266.7,294.96,267.72z"/>
	<path class="st3" d="M194.74,267.61c10.54-5.73,20.7-3.89,26.45,4.8c5.07,7.67,3.53,18.9-3.41,24.89
		c-7.32,6.32-18.92,5.94-25.81-0.83c-7.6-7.48-7.53-17.24,0.19-26.86c0.82,4.02,1.64,8.05,2.46,12.07
		c-0.96,7.14,2.55,12.07,9.26,11.72c4.1-0.21,10.1-3.76,11.52-7.3c2.75-6.88-0.74-12.47-8.75-13.98
		C202.69,270.62,198.71,269.11,194.74,267.61z"/>
	<path class="st4" d="M372.55,154.68c-9.66-7.49-18.19-14.1-27.51-21.32c6.09-5.8,11.79-11.52,17.85-16.82
		c1.66-1.45,4.59-2.44,6.66-2.06c1.27,0.23,2.81,3.41,2.86,5.3C372.69,130.98,372.55,142.18,372.55,154.68z"/>
	<path class="st5" d="M285.58,441.19c-14.6,17.48-39.65,20.64-60.66,0C245.08,441.19,265.2,441.19,285.58,441.19z"/>
	<path class="st6" d="M169.24,131.97c-9.25,6.94-16.89,12.68-26.11,19.6c0-12.12-0.2-22.93,0.34-33.7c0.05-0.94,6.1-3.18,7.38-2.2
		C157.26,120.54,163,126.29,169.24,131.97z"/>
	<path class="st7" d="M194.63,281.68c-0.82-4.02-1.64-8.05-2.46-12.07c0.86-0.67,1.71-1.33,2.57-2c3.97,1.51,7.95,3.01,11.92,4.52
		C207.07,280.87,203.43,284.53,194.63,281.68z"/>
	<path class="st8" d="M294.54,281.65c-0.27-4.44-0.55-8.88-0.8-13.34c0.36-0.35,0.76-0.54,1.23-0.6c6.49-1.01,11.4,0.36,12.07,8.09
		C305.05,282.44,300.8,284.19,294.54,281.65z"/>
	<path class="st9" d="M294.54,281.65c6.26,2.55,10.51,0.79,12.5-5.84c1.45-0.73,2.9-1.44,4.35-2.15c1.43,4.54,4.8,9.64,3.69,13.44
		c-0.89,3.06-7.16,6.26-11.1,6.33C297.28,293.54,293.85,288.68,294.54,281.65z"/>
	<path class="st10" d="M194.63,281.68c8.8,2.85,12.44-0.81,12.03-9.56c8.01,1.5,11.5,7.09,8.75,13.98
		c-1.42,3.54-7.42,7.08-11.52,7.3C197.18,293.75,193.67,288.82,194.63,281.68z"/>
</g>
</svg>
